# xmcd
#
# Track frame offsets:
#	150
#	20221
#	38740
#	57522
#	77072
#	98006
#	121381
#	138729
#	158601
#	181671
#	199893
#	221687
#	245126
#
# Disc length: 3493 seconds
#
# Revision: 1
# Processed by: cddbd v1.5.2PL0 Copyright (c) Steve Scherf et al.
# Submitted via: EasyCDDAExtractor 16.0.9.1
#
DISCID=b90da30d
DTITLE=Various Artist - Chúc Xuân
DYEAR=2005
DGENRE=Pop
TTITLE0=Lương Tùng Quang and Như Loan - Đón Xuân
TTITLE1=Thủy Tien - Khúc Nhạc Ngày Xuân
TTITLE2=Tâm Đoan - Xuân Về
TTITLE3=Khánh Hà - Nắng Có Còn Xuân
TTITLE4=Trần Thu Hà - Khúc Hát Thanh Xuân
TTITLE5=Trần Thái Hòa - Xuân Tha Hương
TTITLE6=Bảo Hân - Khúc Xuân Tình
TTITLE7=Lưu Bích - Nhớ Về Một Mùa Xuân
TTITLE8=Bằng Kiều - Lạc Mất Mùa Xuân
TTITLE9=Vân Quỳnh and Dương Triệu Vũ - Chúc Xuân
TTITLE10=Minh  Tuyết - Xuân and Tuổi Trẻ
TTITLE11=Lương Tùng Quang, Bằng Kiều, Vân Quỳnh - Chào Mùa Xuân Mới
TTITLE12=Hợp Ca - Ly Rượu Mừng
EXTD=192k 44khz - (ThuyNga CD]\n
EXTT0=Trieumph\n
EXTT1=Trieumph\n
EXTT2=Trieumph\n
EXTT3=Trieumph\n
EXTT4=Trieumph\n
EXTT5=Trieumph\n
EXTT6=Trieumph\n
EXTT7=Trieumph\n
EXTT8=Trieumph\n
EXTT9=Trieumph\n
EXTT10=Trieumph\n
EXTT11=Trieumph\n
EXTT12=Trieumph\n
PLAYORDER=
